<?xml version="1.0" encoding="utf-8"?>
<svg width="210px" height="61px" viewBox="0 0 210 61" version="1.1" xmlns:xlink="http://www.w3.org/1999/xlink" xmlns="http://www.w3.org/2000/svg">
  <g id="logo-netflix">
    <path d="M0 0L11.454 0L20.335 34.7768L20.501 34.7768L20.501 0L28.635 0L28.6348 55.5625L18.7417 56.1094L8.3 15.6869L8.134 15.6869L8.134 58.0996L0 61L0 0ZM39 0L62 0L62 7.57143L47.4333 7.57143L47.4333 21.5786L59.01 21.5786L59.01 29.15L47.4333 29.15L47.4333 45.4286L62 45.4286L62 51.8613L39 53L39 0ZM78.1176 7.14286L70 7.14286L70 0L94 0L94 7.14286L85.8823 7.14286L85.8823 50L78.1176 50L78.1176 7.14286ZM101 0L127 0L127 7.14286L110.828 7.14286L110.828 21.0714L123.515 21.0714L123.515 28.2143L110.828 28.2143L110.828 50L101 50L101 0ZM132 0L141.986 0L141.986 41.2399L156 42.163L156 50.3086L132 50.0377L132 0ZM164 0L172 0L172 52L164 50L164 0ZM189.253 28.2613L179.484 0L188.849 0L194.823 18.6756L194.984 18.6756L201.12 0L209.516 0L199.747 28.2613L210 61L200.635 57.8449L194.177 37.6818L194.016 37.6818L188.833 53L180.605 53L189.253 28.2613Z" id="Sendero" fill="#FFFFFF" stroke="none" />
  </g>
</svg>