<?xml version="1.0" encoding="utf-8"?>
<svg xmlns="http://www.w3.org/2000/svg" viewBox="116.3242 193.5873 198.204 58.1" width="198.204px" height="58.1px">
  <defs>
    <clipPath id="clip_1">
      <path d="M220 0L220 0L220 100L0 100L0 0L220 0Z" clip-rule="evenodd" fill-rule="evenodd"/>
    </clipPath>
  </defs>
  <g id="logo-netflix" transform="matrix(1, 0, 0, 1, 127.19164276123047, 157.77989196777344)">
    <g id="NETFLIX" transform="matrix(1, 0, 0, 1, -14.270398, -5.692599)" clip-path="url(#clip_1)">
      <g transform="translate(0, 24.9)" id="NETFLIX" fill="#FFFFFF">
        <path d="M3.403 16.6L14.857 16.6L23.738 51.377L23.904 51.377L23.904 16.6L32.038 16.6L32.038 74.7L22.659 74.7L11.703 32.287L11.537 32.287L11.537 74.7L3.403 74.7L3.403 16.6ZM38.844 16.6L63.744 16.6L63.744 24.9L47.974 24.9L47.974 40.255L60.507 40.255L60.507 48.555L47.974 48.555L47.974 66.4L63.744 66.4L63.744 74.7L38.844 74.7L38.844 16.6ZM76.111 24.9L66.566 24.9L66.566 16.6L94.786 16.6L94.786 24.9L85.241 24.9L85.241 74.7L76.111 74.7L76.111 24.9ZM99.185 16.6L123.338 16.6L123.338 24.9L108.315 24.9L108.315 41.085L120.101 41.085L120.101 49.385L108.315 49.385L108.315 74.7L99.185 74.7L99.185 16.6ZM127.737 16.6L136.867 16.6L136.867 66.4L151.89 66.4L151.89 74.7L127.737 74.7L127.737 16.6ZM156.289 16.6L165.419 16.6L165.419 74.7L156.289 74.7L156.289 16.6ZM180.276 44.986L170.233 16.6L179.861 16.6L186.003 35.358L186.169 35.358L192.477 16.6L201.109 16.6L191.066 44.986L201.607 74.7L191.979 74.7L185.339 54.448L185.173 54.448L178.367 74.7L169.735 74.7L180.276 44.986Z" style=""/>
      </g>
    </g>
  </g>
</svg>