<?xml version="1.0" encoding="utf-8"?>
<svg width="210px" height="60.546875px" viewBox="0 0 210 60.546875" version="1.1" xmlns:xlink="http://www.w3.org/1999/xlink" xmlns="http://www.w3.org/2000/svg">
  <g id="logo-netflix">
    <path d="M0 0L11.454 0L20.335 34.7768L20.501 34.7768L20.501 0L28.635 0L28.6348 57L19 58L8.3 15.6869L8.134 15.6869L8.13379 59.5L0 60.5469L0 0ZM39 0L62 0L62 7.85186L47.4333 7.85186L47.4333 22.3778L59.01 22.3778L59.01 30.2296L47.4333 30.2296L47.4333 47.1111L62 47.1111L62 54L39 56L39 0ZM78.1177 7.57143L70 7.57143L70 0L94 0L94 7.57143L85.8824 7.57143L85.8824 53.0001L78 53.2461L78.1177 7.57143ZM101 0L127 0L127 7.42857L110.828 7.42857L110.828 21.9143L123.515 21.9143L123.515 29.3429L110.828 29.3429L111 52.5L101 52.5L101 0ZM132 0L141.986 0L141.986 43.6991L156 44.6772L156 54.5L132 53.0216L132 0ZM164 0L172 0L172 56L164 55L164 0ZM189.253 28.2614L179.484 0L188.849 0L194.823 18.6756L194.984 18.6756L201.12 0L209.516 0L199.747 28.2614L210 60.5L200.635 59L194.177 37.6818L194.016 37.6818L188.833 57.5L180.605 56.5L189.253 28.2614Z" id="Forma" fill="#FFFFFF" stroke="none" />
  </g>
</svg>