<?xml version="1.0" encoding="utf-8"?>
<svg width="145px" height="42px" viewBox="0 0 145 42" version="1.1" xmlns:xlink="http://www.w3.org/1999/xlink" xmlns="http://www.w3.org/2000/svg">
  <defs>
    <path d="M145 0L145 0L145 42L0 42L0 0L145 0Z" id="path_1" />
    <path d="M103 0L145 0L145 42L103 42L103 0Z" id="path_2" />
    <path d="M72 0L93 42L51 42L72 0Z" id="path_3" />
    <path d="M0 21.5C0 10.1782 9.17816 1 20.5 1C31.8218 1 41 10.1782 41 21.5C41 32.8218 31.8218 42 20.5 42C9.17816 42 0 32.8218 0 21.5Z" id="path_4" />
    <clipPath id="clip_1">
      <use xlink:href="#path_1" clip-rule="evenodd" fill-rule="evenodd" />
    </clipPath>
    <clipPath id="clip_2">
      <use xlink:href="#path_2" />
    </clipPath>
    <clipPath id="clip_3">
      <use xlink:href="#path_3" />
    </clipPath>
    <clipPath id="clip_4">
      <use xlink:href="#path_4" />
    </clipPath>
  </defs>
  <g id="logo-squid">
    <path d="M145 0L145 0L145 42L0 42L0 0L145 0Z" id="logo-squid" fill="none" stroke="none" />
    <g id="Grupo" clip-path="url(#clip_1)">
      <g id="Rectángulo">
        <use stroke="none" fill="#FF9800" fill-opacity="0" xlink:href="#path_2" fill-rule="evenodd" />
        <g clip-path="url(#clip_2)">
          <use xlink:href="#path_2" fill="none" stroke="#FC4850" stroke-width="8" />
        </g>
      </g>
      <g id="Triángulo">
        <use stroke="none" fill="#FF9800" fill-opacity="0" xlink:href="#path_3" fill-rule="evenodd" />
        <g clip-path="url(#clip_3)">
          <use xlink:href="#path_3" fill="none" stroke="#FC4850" stroke-width="8" />
        </g>
      </g>
      <g id="Óvalo">
        <use stroke="none" fill="#FF9800" fill-opacity="0" xlink:href="#path_4" fill-rule="evenodd" />
        <g clip-path="url(#clip_4)">
          <use xlink:href="#path_4" fill="none" stroke="#FC4850" stroke-width="8" />
        </g>
      </g>
    </g>
  </g>
</svg>